<?xml version="1.0" encoding="UTF-8"?>
<svg id="_Слой_1" data-name="Слой 1" xmlns="http://www.w3.org/2000/svg" viewBox="0 0 69.5 71.12">
  <defs>
    <style>
      .cls-1 {
        font-family: NetflixSans-Black, 'Netflix Sans';
        font-size: 3.27px;
        font-weight: 800;
      }

      .cls-1, .cls-2 {
        fill: #04c06a;
      }

      .cls-3 {
        fill: #e53112;
      }
    </style>
  </defs>
  <path class="cls-2" d="M63.56,71.12l-57-.1c-3.36,0-5.79-2.92-6.51-5.94l-.05-58.53C.53,3.21,2.79.74,6.08.04l57.38-.04c3.22.81,5.49,3.04,6.02,6.31l.02,58.49c-.59,3.19-2.69,5.45-5.94,6.32ZM67.59,64.47l-.03-42.08.06-14.42c.2-2.95-1.68-5.47-4.63-6H6.31c-2.3.56-3.87,2.25-4.36,4.58v58.27c.65,2,2.27,4.28,4.62,4.29l56.85.08c2.23-.74,3.7-2.3,4.17-4.71Z"/>
  <path class="cls-2" d="M60.87,35.56c0,14.48-11.71,26.21-26.15,26.21s-26.15-11.74-26.15-26.21,11.71-26.21,26.15-26.21,26.15,11.74,26.15,26.21ZM59.04,35.57c0-13.46-10.89-24.38-24.32-24.38s-24.32,10.91-24.32,24.38,10.89,24.38,24.32,24.38,24.32-10.91,24.32-24.38Z"/>
  <path class="cls-2" d="M57.33,35.58c0,12.52-10.13,22.68-22.62,22.68s-22.62-10.15-22.62-22.68,10.13-22.68,22.62-22.68,22.62,10.15,22.62,22.68ZM36.91,20.21c.86.05,1.64.44,2.55,0l-5.56-5.52c-5.7.04-11.1,2.7-14.72,7.15-.54.66-1.31,1.04-1.42,2.1,3.38-1.28,6.56-2.26,9.99-3.09,3.03-.73,6.01-.82,9.16-.64ZM51.84,23.71c-3.91-5.36-8.96-8.43-15.38-9.01,5.68,5.27,10.45,10.29,13.52,17.67.9-3,1.28-5.65,1.86-8.65ZM27.8,37.89c-.12,4.15,3.15,7.31,7.08,7.25s6.86-3.18,6.79-7.17l-.05-2.41c-.01-.59.22-.94.7-1,.38-.05.9.18.89.77l-.05,4.1c-.61,3.95-3.82,6.88-7.63,7.29l-.03,2.57c2.26-.16,4.34-.34,6.59-.9,3.16-3.8,5.53-8.08,6.97-12.82-1.6-4.79-3.87-9.07-7.3-12.86-4.76-1.18-9.63-1.04-14.38.12-2.93,3.54-5.16,7.34-6.67,11.6-.32.91-.2,1.58.1,2.45,1.5,4.33,3.73,8.22,6.72,11.7,2.12.32,4.09.71,6.26.68.09-.93.09-1.72-.04-2.56-4.23-.42-7.64-3.99-7.62-8.23v-3.14c.02-.52.42-.83.85-.83.28,0,.72.25.74.67l.07,2.71ZM17.69,38.23c1.24-4.94,3.16-9.43,6.02-13.49.16-.23.26-.4.22-.56-.21-.77-5.47,1.56-7.96,2.45-2.63,5.69-2.8,12.25.1,18.01l1.61-6.4ZM45.18,47.5c2.86-.73,5.48-1.7,8.24-2.88,2.72-5.75,2.74-12.49-.21-18.39-.95,5.54-2.21,10.53-4.55,15.32-.96,2.1-2.14,3.78-3.48,5.96ZM31.76,56.37c.35.04.37-.2.37-.29s-.03-.32-.17-.44c-2.35-1.95-4.21-4.17-6.25-6.45-2.72-3.06-4.55-6.56-6.19-10.48-1.1,3.05-1.26,5.88-1.72,8.83,2.87,4.6,8.4,8.17,13.95,8.83ZM29.58,50.86l6.03,5.8c6.49-.49,12.66-3.72,16.28-9.4-4.5,1.58-8.71,2.96-13.29,3.61l-3.34.23-5.68-.25Z"/>
  <path class="cls-2" d="M28.96,37.87l-.06-8.47c0-1.3.23-2.23,1.04-3.27,1.5-1.94,3.85-3.15,6.32-2.37,2.33.74,4.15,2.86,4.19,5.37.05,3.45.19,6.82-.23,10.24-.38,3.07-3.46,4.78-6.25,4.44s-4.98-2.81-5-5.94ZM38.37,39.75c.6-1.12.37-2.41.39-3.5-.9.04-1.49.08-2.18-.14-.46-.14-.49-.71-.31-1.07.33-.68,1.32-.26,2.5-.53.06-.41.02-.78-.11-1.16-.83.05-1.78.21-2.37-.27-.37-.31-.03-1.01.24-1.16.8-.45,1.87.01,2.04-.33.64-1.29-1.13-.51-2.04-1.02-.27-.15-.56-.94-.27-1.17l2.41-.2c.02-2.34-1.95-3.95-3.99-3.9s-3.85,1.32-4.02,3.62c1.4.21,2.65-.08,2.5,1-.05.34-.32.65-.79.66l-1.66.03c-.1.51-.06.98.13,1.07.35.18,2.43-.34,2.37.95-.06,1.2-2.3.53-2.49.91-.09.19-.1.74,0,.93.21.42,1.76-.2,2.26.37.24.27.32,1.02-.08,1.22-.69.35-1.42.19-2.18.19,0,1.08-.16,2.09.1,3.06.46,1.74,1.99,2.81,3.62,2.95s3.08-.93,3.93-2.51Z"/>
  <circle class="cls-3" cx="8.58" cy="7.76" r="1.19"/>
  <text class="cls-1" transform="translate(10.41 8.89)"><tspan x="0" y="0">REC</tspan></text>
</svg>