<?xml version="1.0" encoding="UTF-8"?>
<svg id="_Слой_1" data-name="Слой 1" xmlns="http://www.w3.org/2000/svg" viewBox="0 0 68.58 68.76">
  <defs>
    <style>
      .cls-1 {
        fill: #00c763;
      }
    </style>
  </defs>
  <path class="cls-1" d="M43.54,68.76c-.77,0-1.22-.07-1.9-.07l-36.88-.05c-2.48-.7-4.31-2.06-4.72-4.58C.02,44.31.01,24.55,0,4.8c0-.29.03-.71.17-1.19.28-.95.84-1.56,1.41-2.17.38-.41.61-.66,1.02-.91.59-.36,1.16-.48,1.52-.52,20.09.03,40.17.06,60.26.09,2.77,0,4.2,3.05,4.19,5.48l-.1,58.19c0,2.51-2.37,4.75-4.87,4.77l-20.06.22ZM2.54,63.44c0,1.79,1.78,2.61,3.27,2.61l50.2-.03,7.23-.05c1.38.01,2.79-1.09,2.79-2.67v-20.55s-22.41,0-22.41,0c-.77,0-1.31-.48-1.4-1.13-.07-.52.24-1.14.91-1.33h22.95s-.04-12.32-.04-12.32l-15.47-.04c-.65-.24-.86-.86-.82-1.36.03-.34.26-1.07.82-1.07l15.5-.04-.03-19.89c0-1.48-.74-2.71-2.16-3.14-.14,0-.28,0-.42,0-.81,0-1.61,0-2.42,0-1.41,0-2.81,0-4.22,0-1.87,0-3.74,0-5.61,0-2.2,0-4.39,0-6.59,0-2.39,0-4.77,0-7.16,0-2.44,0-4.88,0-7.32,0-2.36,0-4.72,0-7.08,0-2.14,0-4.29,0-6.43,0-1.79,0-3.58,0-5.37,0-1.3,0-2.6,0-3.9,0-.42,0-.85,0-1.27,0-.15,0-.3.01-.45,0-.21-.02-.42,0-.62.03-.23.02-.5.05-.78.15-.41.16-.66.43-.86.67-.17.19-.43.54-.6,1.02-.14.4-.16.73-.17.91-.05,1.07-.14,2.14-.14,3.2l.02,17.05h19.84c-1.63-3.22-1.26-7,1.38-9.34.57-.39,1.11-.7,1.74-.49.43.14.7.63.95,1.15l4.22,8.67,5.54.04c.51,0,.81.74.85,1.11.04.47-.06,1-.62,1.29l-33.88.06-.03,12.32h26.49c.79.13,1.11.69,1.04,1.38-.04.42-.36,1.08-1.05,1.08H2.48s.06,20.7.06,20.7ZM27.84,25.38l-3.21-6.47c-1.38,2.16-.76,4.73.69,6.6l2.52-.13Z"/>
  <path class="cls-1" d="M20.52,36.11c0,.88-.56,1.37-1.22,1.38-.62.01-1.21-.51-1.22-1.28l-.04-4.24c0-.89.56-1.28,1.27-1.28s1.22.44,1.22,1.31v4.1Z"/>
  <path class="cls-1" d="M32.12,36.26c0,.88-.56,1.37-1.22,1.38-.62.01-1.21-.51-1.22-1.28l-.04-4.24c0-.89.56-1.28,1.27-1.28s1.22.44,1.22,1.31v4.1Z"/>
  <path class="cls-1" d="M14.56,36.54c0,.59-.56.92-1.22.92-.62,0-1.21-.34-1.22-.86l-.04-2.84c0-.6.56-.85,1.27-.86s1.22.29,1.22.88v2.75Z"/>
  <path class="cls-1" d="M26.34,36.54c0,.59-.56.92-1.22.92-.62,0-1.21-.34-1.22-.86l-.04-2.84c0-.6.56-.85,1.27-.86s1.22.29,1.22.88v2.75Z"/>
  <path class="cls-1" d="M42.9,55.61c-1.98-.24-3.45-1.48-4.12-2.71-.97-1.77-.81-3.65-.04-5.34l-1.91-3.87-3.38,1.43c-.74.31-1.44,1.82-1.48,2.61.52,1.77.82,3.47-.24,5.2-1.18,1.91-3.79,3.12-5.67,2.6s-3.55-1.91-4.03-3.6c-.62-2.22-.08-4.3,1.49-5.77,1.89-1.78,4.49-1.98,6.56-.57l14.56-29.65c.47-.96,2.01-.11,2.51.43,2.2,2.38,2.62,5.7,1.22,8.6l-2.82,5.81-3.89,7.85c-.71,1.44-1.17,2.99-2.57,4.1l1.34,2.75c1.18-.47,2.17-.99,3.42-.81,2.44.35,4.63,2.23,4.94,4.82.4,3.32-2.54,6.51-5.91,6.11ZM38.02,40.55l8.24-16.92c.73-1.5.51-3.25-.37-4.74l-3.61,7.42-7.52,15.46,3.26-1.22ZM30.01,50.13c0-1.59-1.29-2.88-2.88-2.88s-2.88,1.29-2.88,2.88,1.29,2.88,2.88,2.88,2.88-1.29,2.88-2.88ZM46.31,50.12c0-1.59-1.29-2.89-2.88-2.89s-2.88,1.29-2.88,2.89,1.29,2.89,2.88,2.89,2.88-1.29,2.88-2.89Z"/>
  <path class="cls-1" d="M8.6,36.09c0,.88-.56,1.36-1.22,1.38-.62.01-1.21-.51-1.22-1.28l-.04-4.23c0-.89.56-1.27,1.27-1.27s1.22.44,1.22,1.31v4.09Z"/>
  <g>
    <path class="cls-1" d="M50.96,35.91c0,.88-.56,1.37-1.22,1.38-.62.01-1.21-.51-1.22-1.28l-.04-4.24c0-.89.56-1.28,1.27-1.28s1.22.44,1.22,1.31v4.1Z"/>
    <path class="cls-1" d="M62.57,36.06c0,.88-.56,1.37-1.22,1.38-.62.01-1.21-.51-1.22-1.28l-.04-4.24c0-.89.56-1.28,1.27-1.28s1.22.44,1.22,1.31"/>
    <path class="cls-1" d="M56.78,36.34c0,.59-.56.92-1.22.92-.62,0-1.21-.34-1.22-.86l-.04-2.84c0-.6.56-.85,1.27-.86s1.22.29,1.22.88v2.75Z"/>
  </g>
</svg>