<?xml version="1.0" encoding="UTF-8"?>
<svg id="_Слой_1" data-name="Слой 1" xmlns="http://www.w3.org/2000/svg" viewBox="0 0 64.67 63.83">
  <defs>
    <style>
      .cls-1 {
        fill: none;
      }

      .cls-2 {
        fill: #04c666;
      }
    </style>
  </defs>
  <path class="cls-2" d="M23.52.04L56.02,0c.88,0,1.52.13,2.21.23,1.02.15,1.98.61,2.83,1.23.56.41,1.08.87,1.54,1.39s.86,1.06,1.19,1.66c.14.26.27.52.38.79.06.14.11.27.16.41.06.15.09.3.12.46.08.41.16.83.2,1.25.02.15.02.29.01.44,0,.06,0,.12,0,.18v.27c0,.12,0,.24,0,.36v.45c0,.18,0,.35,0,.53v.6c0,.23,0,.45,0,.68v.74c0,.27,0,.54,0,.81v.87c0,.31,0,.62,0,.93v.98c0,.34,0,.69,0,1.03v1.08c0,.37,0,.75,0,1.12v1.16c0,.4,0,.8,0,1.19v1.22c0,.42,0,.83,0,1.25v1.27c0,.43,0,.86,0,1.29v1.31c0,.44,0,.88,0,1.32v1.33c0,.44,0,.89,0,1.33v1.33c0,.44,0,.89,0,1.33v1.32c0,.44,0,.87,0,1.31v1.3c0,.43,0,.85,0,1.28v1.25c0,.41,0,.82,0,1.23v1.2c0,.39,0,.78,0,1.16v1.12c0,.36,0,.72,0,1.08v1.04c0,.33,0,.66,0,.99v.93c0,.29,0,.58,0,.88v.82c0,.25,0,.5,0,.75v.68c0,.2,0,.41,0,.61v.53c0,.15,0,.3,0,.45v.37c0,.09,0,.19,0,.28v.19s0,.06,0,.11c0,1.29,0,2.61-.54,3.84-1.21,2.78-3.86,5.26-6.92,5.26l-49.88-.05c-1.54,0-3.92-1.32-4.78-2.12C.43,59.67-.2,56.85.05,54.04c0-.03,0-.06,0-.09,0-.14,0-.27-.01-.41,0-.16-.01-.32-.01-.47v-9.55s0-17.33,0-17.33v-.96s.01-.48.01-.48v-.98s0-3.35,0-3.35v-4.54s0-3.37,0-3.37v-1.67s-.02-2.16-.02-2.16c0-1.35.18-2.5.7-3.68C1.8,2.6,4.32.14,7.24.12L23.52.04ZM57.34,61.51c3.11-.7,4.89-3.03,4.89-6.06l.04-46.76c0-3.2-2.13-6.28-5.52-6.28H17.31s-9.61.07-9.61.07c-2.63.02-5.09,2.43-5.11,5.07,0,0-.11,11.95-.11,11.95,0,.34,0,.68,0,1.01v2.76c0,1.36,0,2.72,0,4.08v4.97c0,1.81,0,3.63,0,5.44v5.5c0,1.71,0,3.42,0,5.12v4.33c0,1.04,0,2.07,0,3.11,0,.34-.05.69.02,1.02s.17.69.31,1.01c.21.49.48.95.83,1.36s.67.84,1.1,1.2c.78.65,1.73,1.03,2.76,1.03l49.85.07Z"/>
  <path class="cls-1" d="M57.34,61.53l-49.85-.07c-2.47,0-3.89-1.98-5.01-4.09V19.53s.1-11.95.1-11.95c.02-2.64,2.48-5.06,5.11-5.07l9.61-.07h39.44c3.39,0,5.53,3.09,5.52,6.28l-.04,46.76c0,3.03-1.78,5.36-4.89,6.06ZM52.86,49.9c2.5-2.08,3.56-5.1,3.55-8.39l-.12-29.18c0-1.86-1.64-3.12-3.37-3.12l-40.86.03c-1.72,0-3.61,1.2-3.61,3.09v35.45c0,1.26,1.65,2.83,2.97,2.83l29.02.12c4.39,2.58,8.52,2.41,12.43-.83ZM21.01,56.44h34.26c.77,0,1.12-1.03.97-1.46-.2-.6-.66-.86-1.42-.86l-33.91-.06c-.63-1.16-1.47-1.5-2.56-1.55s-1.97.61-2.66,1.43l-5.86.1c-.74.01-1.29.44-1.39,1.13-.06.46.33,1.23.94,1.25l6.29.18c.73.69,1.57,1.62,2.66,1.5s1.98-.5,2.67-1.66Z"/>
  <path class="cls-2" d="M21.01,56.44c-.69,1.17-1.58,1.55-2.67,1.66s-1.93-.81-2.66-1.5l-6.29-.18c-.61-.02-1-.8-.94-1.25.1-.69.65-1.11,1.39-1.13l5.86-.1c.69-.83,1.54-1.49,2.66-1.43s1.93.39,2.56,1.55l33.91.06c.76,0,1.21.26,1.42.86.15.43-.2,1.45-.97,1.45H21.01Z"/>
  <path class="cls-2" d="M52.86,49.9c-3.9,3.25-8.03,3.41-12.43.83l-29.02-.12c-1.32,0-2.96-1.58-2.96-2.83V12.33c0-1.89,1.88-3.09,3.61-3.09l40.86-.03c1.73,0,3.36,1.26,3.37,3.12l.12,29.18c.01,3.29-1.05,6.31-3.55,8.39ZM47.03,31.97c2.82.34,4.98,1.56,6.78,3.47.33-1.5.17-2.79.17-4.19v-9.6c0-3.24.21-6.34-.14-9.57-.03-.28-.59-.53-.96-.53l-41.05.02c-.78,0-1.01.59-1.01,1.23v34.5c0,.6.37,1.01.97,1.01h26.09c-.54-.68-.83-1.4-1.25-2.2-2.71.53-5.32.78-7.9.09-6.06-1.62-10.28-6.79-10.9-12.63-.68-6.37,2.76-12.2,8.12-14.77,5.87-2.82,12.55-1.53,16.97,3.04,2.64,2.74,3.84,6.3,4.11,10.13ZM36,43.89c-.73-5.77,2.94-10.71,8.53-11.75-.01-3.75-1.52-7.3-4.38-9.62-4.36-3.54-10.37-3.85-14.91-.54-3.86,2.81-5.7,7.41-4.89,12.2,1.03,6.15,6.96,10.74,13.37,10.1.72-.07,1.39-.46,2.29-.39ZM54.04,42.23c0-4.36-3.53-7.9-7.88-7.9s-7.88,3.53-7.88,7.9,3.53,7.9,7.88,7.9,7.88-3.53,7.88-7.9Z"/>
  <path class="cls-2" d="M38.33,33.56l-8.15,4.86c-.43.25-.98.44-1.45.26-.36-.14-.91-.61-.91-1.22v-10.96c0-.52.45-.97.73-1.14.36-.22.99-.11,1.4.13l4.4,2.58c1.38.81,2.65,1.66,4.1,2.34.63.3,1.03.9,1.06,1.45.06.82-.41,1.25-1.19,1.71Z"/>
  <path class="cls-2" d="M41.5,43.32c-.47-.48-.67-1.02-.41-1.49s.95-1.09,1.44-.62l1.58,1.52c.51.49,1.06.31,1.47-.12l3.61-3.8c.44-.46,1.25-.44,1.69-.09s.46,1.2-.04,1.74l-4.77,5.03c-.35.37-.76.62-1.17.66-.53.04-.93-.29-1.33-.7l-2.07-2.12Z"/>
</svg>